<svg version="1.1" viewBox="0.0 0.0 772.0 416.0" fill="none" stroke="none" stroke-linecap="square" stroke-miterlimit="10" xmlns:xlink="http://www.w3.org/1999/xlink" xmlns="http://www.w3.org/2000/svg"><clipPath id="p.0"><path d="m0 0l772.0 0l0 416.0l-772.0 0l0 -416.0z" clip-rule="nonzero"/></clipPath><g clip-path="url(#p.0)"><path fill="#000000" fill-opacity="0.0" d="m0 0l772.0 0l0 416.0l-772.0 0z" fill-rule="evenodd"/><path fill="#fece2f" d="m-0.002624672 0.0131233595l772.0 0l0 420.0l-772.0 0z" fill-rule="evenodd"/><path fill="#000000" fill-opacity="0.0" d="m86.485565 52.0l623.0237 0l0 316.0l-623.0237 0z" fill-rule="evenodd"/><path fill="#ffffff" d="m218.28244 159.26562q-1.46875 2.9375 -3.40625 4.140625q-1.921875 1.203125 -4.59375 1.203125q-2.671875 0 -6.0 -2.0625q-3.328125 -2.078125 -7.875 -4.609375q-4.53125 -2.53125 -10.59375 -4.59375q-6.0625 -2.078125 -14.328125 -2.078125q-7.46875 0 -13.0 1.8125q-5.53125 1.796875 -9.34375 5.0q-3.796875 3.1875 -5.671875 7.65625q-1.859375 4.46875 -1.859375 9.796875q0 6.8125 3.796875 11.34375q3.8125 4.53125 10.078125 7.734375q6.265625 3.1875 14.265625 5.734375q8.0 2.53125 16.328125 5.40625q8.328125 2.859375 16.328125 6.65625q8.0 3.796875 14.265625 9.59375q6.28125 5.796875 10.078125 14.203125q3.796875 8.40625 3.796875 20.40625q0 13.0625 -4.46875 24.46875q-4.46875 11.390625 -13.078125 19.859375q-8.59375 8.46875 -21.0 13.34375q-12.390625 4.859375 -28.390625 4.859375q-9.1875 0 -18.125 -1.8125q-8.9375 -1.796875 -17.140625 -5.125q-8.1875 -3.34375 -15.328125 -8.0q-7.125 -4.671875 -12.734375 -10.40625l10.40625 -17.203125q1.46875 -1.859375 3.53125 -3.125q2.0625 -1.265625 4.59375 -1.265625q3.34375 0 7.203125 2.734375q3.875 2.734375 9.140625 6.0625q5.265625 3.328125 12.390625 6.0625q7.140625 2.734375 17.140625 2.734375q15.328125 0 23.71875 -7.265625q8.40625 -7.265625 8.40625 -20.859375q0 -7.609375 -3.796875 -12.40625q-3.796875 -4.796875 -10.0625 -8.0625q-6.265625 -3.265625 -14.265625 -5.53125q-8.0 -2.265625 -16.265625 -4.9375q-8.265625 -2.671875 -16.265625 -6.390625q-8.0 -3.734375 -14.28125 -9.734375q-6.265625 -6.0 -10.0625 -15.0q-3.796875 -9.0 -3.796875 -22.203125q0 -10.53125 4.203125 -20.53125q4.203125 -10.0 12.265625 -17.734375q8.0625 -7.734375 19.796875 -12.390625q11.734375 -4.671875 26.796875 -4.671875q17.0625 0 31.46875 5.328125q14.40625 5.328125 24.53125 14.9375l-8.796875 16.921875zm117.32678 128.79688q10.40625 0 18.59375 -3.453125q8.203125 -3.46875 13.859375 -9.734375q5.671875 -6.265625 8.671875 -15.203125q3.0 -8.9375 3.0 -20.0l0 -115.46875l35.875 0l0 115.46875q0 17.203125 -5.53125 31.796875q-5.53125 14.59375 -15.9375 25.203125q-10.40625 10.59375 -25.203125 16.53125q-14.796875 5.9375 -33.328125 5.9375q-18.53125 0 -33.328125 -5.9375q-14.796875 -5.9375 -25.140625 -16.53125q-10.328125 -10.609375 -15.859375 -25.203125q-5.53125 -14.59375 -5.53125 -31.796875l0 -115.46875l35.859375 0l0 115.328125q0 11.078125 3.0 20.015625q3.0 8.921875 8.59375 15.265625q5.609375 6.328125 13.796875 9.796875q8.203125 3.453125 18.609375 3.453125zm153.5946 -38.921875l0 67.859375l-35.859375 0l0 -192.79688l62.796844 0q19.328125 0 33.453125 4.546875q14.140625 4.53125 23.328125 12.671875q9.203125 8.125 13.609375 19.453125q4.40625 11.328125 4.40625 24.796875q0 14.0 -4.671875 25.671875q-4.671875 11.65625 -14.0 20.0625q-9.328125 8.390625 -23.328125 13.0625q-14.0 4.671875 -32.796875 4.671875l-26.93747 0zm0 -28.0l26.93747 0q9.859375 0 17.1875 -2.46875q7.34375 -2.46875 12.140625 -7.0625q4.796875 -4.609375 7.1875 -11.203125q2.40625 -6.59375 2.40625 -14.734375q0 -7.734375 -2.40625 -14.0q-2.390625 -6.265625 -7.1875 -10.65625q-4.796875 -4.40625 -12.140625 -6.734375q-7.328125 -2.34375 -17.1875 -2.34375l-26.93747 0l0 69.203125zm174.129 -96.9375l0 76.265625q0 12.140625 -1.203125 23.8125q-1.203125 11.65625 -3.203125 24.71875l-22.265625 0q-2.0 -13.0625 -3.203125 -24.71875q-1.1875 -11.671875 -1.1875 -23.8125l0 -76.265625l31.0625 0zm-36.140625 174.67188q0 -4.140625 1.53125 -7.875q1.546875 -3.734375 4.28125 -6.390625q2.734375 -2.671875 6.453125 -4.265625q3.734375 -1.609375 8.0 -1.609375q4.140625 0 7.875 1.609375q3.734375 1.59375 6.390625 4.265625q2.671875 2.65625 4.265625 6.390625q1.609375 3.734375 1.609375 7.875q0 4.265625 -1.609375 7.9375q-1.59375 3.65625 -4.265625 6.328125q-2.65625 2.65625 -6.390625 4.1875q-3.734375 1.53125 -7.875 1.53125q-4.265625 0 -8.0 -1.53125q-3.71875 -1.53125 -6.453125 -4.1875q-2.734375 -2.671875 -4.28125 -6.328125q-1.53125 -3.671875 -1.53125 -7.9375z" fill-rule="nonzero"/></g></svg>